<mxfile host="65bd71144e">
    <diagram id="aajZ0z0F-TQ58bnnkiaa" name="Page-1">
        <mxGraphModel dx="1331" dy="536" grid="1" gridSize="10" guides="1" tooltips="1" connect="1" arrows="1" fold="1" page="1" pageScale="1" pageWidth="827" pageHeight="1169" math="0" shadow="0">
            <root>
                <mxCell id="0"/>
                <mxCell id="1" parent="0"/>
                <mxCell id="4" value="The" style="whiteSpace=wrap;html=1;fontFamily=Courier New;fontSize=10;" vertex="1" parent="1">
                    <mxGeometry x="54" y="160" width="80" height="40" as="geometry"/>
                </mxCell>
                <mxCell id="5" value="quick" style="whiteSpace=wrap;html=1;fontFamily=Courier New;fontSize=10;" vertex="1" parent="1">
                    <mxGeometry x="134" y="160" width="80" height="40" as="geometry"/>
                </mxCell>
                <mxCell id="6" value="brown" style="whiteSpace=wrap;html=1;fontFamily=Courier New;fontSize=10;" vertex="1" parent="1">
                    <mxGeometry x="214" y="160" width="80" height="40" as="geometry"/>
                </mxCell>
                <mxCell id="7" value="fox" style="whiteSpace=wrap;html=1;fontFamily=Courier New;fontSize=10;" vertex="1" parent="1">
                    <mxGeometry x="294" y="160" width="80" height="40" as="geometry"/>
                </mxCell>
                <mxCell id="8" value="jumps" style="whiteSpace=wrap;html=1;fontFamily=Courier New;fontSize=10;" vertex="1" parent="1">
                    <mxGeometry x="374" y="160" width="80" height="40" as="geometry"/>
                </mxCell>
                <mxCell id="16" value="over" style="whiteSpace=wrap;html=1;fontFamily=Courier New;fontSize=10;" vertex="1" parent="1">
                    <mxGeometry x="454" y="160" width="80" height="40" as="geometry"/>
                </mxCell>
                <mxCell id="17" value="the" style="whiteSpace=wrap;html=1;fontFamily=Courier New;fontSize=10;" vertex="1" parent="1">
                    <mxGeometry x="534" y="160" width="80" height="40" as="geometry"/>
                </mxCell>
                <mxCell id="18" value="lazy" style="whiteSpace=wrap;html=1;fontFamily=Courier New;fontSize=10;" vertex="1" parent="1">
                    <mxGeometry x="614" y="160" width="80" height="40" as="geometry"/>
                </mxCell>
                <mxCell id="19" value="dog" style="whiteSpace=wrap;html=1;fontFamily=Courier New;fontSize=10;" vertex="1" parent="1">
                    <mxGeometry x="694" y="160" width="80" height="40" as="geometry"/>
                </mxCell>
                <mxCell id="21" value="" style="whiteSpace=wrap;html=1;fontFamily=Courier New;fontSize=10;" vertex="1" parent="1">
                    <mxGeometry x="54" y="80" width="80" height="40" as="geometry"/>
                </mxCell>
                <mxCell id="22" value="" style="whiteSpace=wrap;html=1;fontFamily=Courier New;fontSize=10;" vertex="1" parent="1">
                    <mxGeometry x="134" y="80" width="80" height="40" as="geometry"/>
                </mxCell>
                <mxCell id="23" value="" style="whiteSpace=wrap;html=1;fontFamily=Courier New;fontSize=10;" vertex="1" parent="1">
                    <mxGeometry x="214" y="80" width="80" height="40" as="geometry"/>
                </mxCell>
                <mxCell id="24" value="" style="whiteSpace=wrap;html=1;fontFamily=Courier New;fontSize=10;" vertex="1" parent="1">
                    <mxGeometry x="294" y="80" width="80" height="40" as="geometry"/>
                </mxCell>
                <mxCell id="25" value="" style="whiteSpace=wrap;html=1;fontFamily=Courier New;fontSize=10;" vertex="1" parent="1">
                    <mxGeometry x="374" y="80" width="80" height="40" as="geometry"/>
                </mxCell>
                <mxCell id="26" value="&lt;font face=&quot;Courier New&quot;&gt;&lt;b&gt;n_ctx = 9&lt;/b&gt;&lt;/font&gt;" style="text;html=1;align=center;verticalAlign=middle;resizable=0;points=[];autosize=1;strokeColor=none;fillColor=none;" vertex="1" parent="1">
                    <mxGeometry x="369" y="40" width="90" height="30" as="geometry"/>
                </mxCell>
                <mxCell id="27" value="" style="whiteSpace=wrap;html=1;fontFamily=Courier New;fontSize=10;" vertex="1" parent="1">
                    <mxGeometry x="454" y="80" width="80" height="40" as="geometry"/>
                </mxCell>
                <mxCell id="28" value="" style="whiteSpace=wrap;html=1;fontFamily=Courier New;fontSize=10;" vertex="1" parent="1">
                    <mxGeometry x="534" y="80" width="80" height="40" as="geometry"/>
                </mxCell>
                <mxCell id="29" value="" style="whiteSpace=wrap;html=1;fontFamily=Courier New;fontSize=10;" vertex="1" parent="1">
                    <mxGeometry x="614" y="80" width="80" height="40" as="geometry"/>
                </mxCell>
                <mxCell id="30" value="" style="whiteSpace=wrap;html=1;fontFamily=Courier New;fontSize=10;" vertex="1" parent="1">
                    <mxGeometry x="694" y="80" width="80" height="40" as="geometry"/>
                </mxCell>
            </root>
        </mxGraphModel>
    </diagram>
</mxfile>